<?xml version="1.0" encoding="utf-8"?>
<svg version="1.1" id="Layer_1" xmlns="http://www.w3.org/2000/svg" xmlns:xlink="http://www.w3.org/1999/xlink" x="0px" y="0px"
	 viewBox="0 0 30 30" style="enable-background:new 0 0 30 30;" xml:space="preserve">
<path d="M26.4,12.5V30H19V20h-8v10H3.7V12.5l11.3-8.4L26.4,12.5z M3.7,8.6V2.3h4v3.3L15.1,0l14.6,10.9c0.3,0.3,0.4,0.8,0.1,1.1
	c-0.3,0.3-0.8,0.4-1.1,0.1L15.1,1.9L1.2,12.1c-0.1,0.1-0.3,0.1-0.4,0.1c-0.3,0-0.5-0.1-0.6-0.3c-0.3-0.3-0.2-0.8,0.1-1.1L3.7,8.6z"
	/>
</svg>
