<?xml version="1.0" encoding="utf-8"?>
<svg version="1.1" id="icon" xmlns="http://www.w3.org/2000/svg" xmlns:xlink="http://www.w3.org/1999/xlink" x="0px" y="0px"
	 viewBox="0 0 30 30" style="enable-background:new 0 0 30 30;" xml:space="preserve">
<path id="video-settings" d="M25.9,11.6l-0.8-1.8c0,0,1.8-4,1.6-4.1l-2.3-2.3c-0.2-0.2-4.1,1.7-4.1,1.7l-1.8-0.7c0,0-1.6-4-1.8-4
	h-3.3c-0.2,0-1.7,4-1.7,4L9.7,5.1c0,0-4.1-1.7-4.2-1.6L3.2,5.8C3,6,4.9,9.9,4.9,9.9l-0.8,1.8c0,0-4.1,1.6-4.1,1.8v3.2
	c0,0.2,4.1,1.7,4.1,1.7l0.8,1.8c0,0-1.8,4-1.6,4.1l2.3,2.3c0.2,0.2,4.1-1.7,4.1-1.7l1.8,0.7c0,0,1.6,4,1.8,4h3.3c0.2,0,1.7-4,1.7-4
	l1.8-0.7c0,0,4.1,1.7,4.2,1.6l2.3-2.3c0.2-0.2-1.7-4.1-1.7-4.1l0.8-1.8c0,0,4.1-1.6,4.1-1.8v-3.2C30,13.1,25.9,11.6,25.9,11.6z
	 M19.8,15c0,2.6-2.2,4.7-4.8,4.7c-2.6,0-4.8-2.1-4.8-4.7s2.2-4.7,4.8-4.7C17.7,10.3,19.8,12.4,19.8,15z"/>
</svg>
