<?xml version="1.0" encoding="utf-8"?>
<svg version="1.1" id="icon" xmlns="http://www.w3.org/2000/svg" xmlns:xlink="http://www.w3.org/1999/xlink" x="0px" y="0px"
	 viewBox="0 0 30 30" style="enable-background:new 0 0 30 30;" xml:space="preserve">
<style type="text/css">
	.st0{fill:#DD4B39;}
</style>
<path id="google" class="st0" d="M15,0C6.8,0,0,6.8,0,15c0,8.2,6.8,15,15,15s15-6.8,15-15S23.2,0,15,0z M17.2,16
	c-0.1,1.2-0.6,2.4-1.4,3.3c-2.2,2.2-6.2,2.2-8.4-0.1S5.2,13,7.5,10.8c1.7-1.7,4.1-2.1,6.3-1.2l0.8,0.5l0.9,0.7l-1.5,1.5l-0.6-0.4
	c-1.3-0.8-3.2-0.7-4.4,0.6c-1.4,1.4-1.5,3.9,0,5.4c1.4,1.5,3.9,1.5,5.2,0c0.4-0.4,0.8-0.9,0.8-1.5v-0.2h-3.4v-1.9h5.3l0.1,0.5V16z
	 M24.3,15.8h-1.7v1.7h-1.7v-1.7h-1.7v-1.7h1.7v-1.7h1.7v1.7h1.7V15.8z"/>
</svg>
