<?xml version="1.0" encoding="utf-8"?>
<svg version="1.1" id="icon" xmlns="http://www.w3.org/2000/svg" xmlns:xlink="http://www.w3.org/1999/xlink" x="0px" y="0px"
	 viewBox="0 0 30 30" style="enable-background:new 0 0 30 30;" xml:space="preserve">
<style type="text/css">
	.st0{fill:#55ACEE;}
</style>
<path id="twitter" class="st0" d="M15,0C6.7,0,0,6.7,0,15c0,8.3,6.7,15,15,15c8.3,0,15-6.7,15-15C30,6.7,23.3,0,15,0z M22.4,12.6
	c0,0.2,0,0.3,0,0.5c0,4.7-3.6,10.2-10.2,10.2c-2,0-3.9-0.6-5.5-1.6c0.3,0,0.6,0.1,0.9,0.1c1.7,0,3.2-0.6,4.5-1.5
	c-1.6,0-2.9-1.1-3.3-2.5c0.2,0,0.4,0.1,0.7,0.1c0.3,0,0.6,0,0.9-0.1c-1.6-0.3-2.9-1.8-2.9-3.5c0,0,0,0,0,0c0.5,0.3,1,0.4,1.6,0.4
	c-1-0.6-1.6-1.7-1.6-3c0-0.7,0.2-1.3,0.5-1.8c1.8,2.2,4.4,3.6,7.4,3.7c-0.1-0.3-0.1-0.5-0.1-0.8c0-2,1.6-3.6,3.6-3.6
	c1,0,2,0.4,2.6,1.1c0.8-0.2,1.6-0.5,2.3-0.9c-0.3,0.8-0.8,1.5-1.6,2c0.7-0.1,1.4-0.3,2.1-0.6C23.7,11.5,23.1,12.1,22.4,12.6z"/>
</svg>
