<?xml version="1.0" encoding="utf-8"?>
<svg version="1.1" id="Layer_1" xmlns="http://www.w3.org/2000/svg" xmlns:xlink="http://www.w3.org/1999/xlink" x="0px" y="0px"
	 viewBox="0 0 30 30" style="enable-background:new 0 0 30 30;" xml:space="preserve">
<path d="M11.5,3c-1.6,1.2-2,3.1-1.9,4.1c0.1,1.2,0.4,2.8,0.4,2.8s-0.5,0.2-0.5,1.4c0.2,2.7,1.1,1.5,1.2,2.7c0.4,2.8,1.4,2.3,1.4,3.9
	c0,2.6-1.1,3.8-4.4,5.2C4.4,24.4,1,26.3,1,29.4V30h28v-0.6c0-3.1-3.3-4.9-6.6-6.4S18,20.4,18,17.8c0-1.6,1-1.1,1.4-3.9
	c0.2-1.2,1.1,0,1.2-2.7c0-1.1-0.5-1.3-0.5-1.3s0.2-1.6,0.4-2.8c0.1-1.2-0.6-4-3.6-4.9c-0.5-0.6-0.9-1.4,0.7-2.2
	C14.2-0.1,13.4,1.7,11.5,3z"/>
</svg>
